<?xml version="1.0" encoding="UTF-8" standalone="no"?>
<svg
   xmlns:dc="http://purl.org/dc/elements/1.1/"
   xmlns:cc="http://creativecommons.org/ns#"
   xmlns:rdf="http://www.w3.org/1999/02/22-rdf-syntax-ns#"
   xmlns:svg="http://www.w3.org/2000/svg"
   xmlns="http://www.w3.org/2000/svg"
   xmlns:sodipodi="http://sodipodi.sourceforge.net/DTD/sodipodi-0.dtd"
   xmlns:inkscape="http://www.inkscape.org/namespaces/inkscape"
   xml:space="preserve"
   enable-background="new 0 0 280 103"
   viewBox="0 0 788.93798 284.31299"
   height="284.31299"
   width="788.93799"
   y="0px"
   x="0px"
   id="Layer_1"
   version="1.1"
   inkscape:version="0.91 r13725"
   sodipodi:docname="International_Pokémon_logo.svg"><metadata
     id="metadata105"><rdf:RDF><cc:Work
         rdf:about=""><dc:format>image/svg+xml</dc:format><dc:type
           rdf:resource="http://purl.org/dc/dcmitype/StillImage" /><dc:title></dc:title></cc:Work></rdf:RDF></metadata><sodipodi:namedview
     pagecolor="#ffffff"
     bordercolor="#666666"
     borderopacity="1"
     objecttolerance="10"
     gridtolerance="10"
     guidetolerance="10"
     inkscape:pageopacity="0"
     inkscape:pageshadow="2"
     inkscape:window-width="1366"
     inkscape:window-height="705"
     id="namedview103"
     showgrid="false"
     inkscape:zoom="1.4142136"
     inkscape:cx="661.90685"
     inkscape:cy="102.51418"
     inkscape:window-x="-8"
     inkscape:window-y="-8"
     inkscape:window-maximized="1"
     inkscape:current-layer="Layer_1" /><defs
     id="defs202" /><linearGradient
     gradientTransform="translate(-408,-677.5)"
     y2="714.04132"
     x2="416.7337"
     y1="732.71002"
     x1="426.75101"
     gradientUnits="userSpaceOnUse"
     id="SVGID_1_"><stop
       id="stop12"
       style="stop-color:#0070B6"
       offset="0" /><stop
       id="stop14"
       style="stop-color:#1D2C5E"
       offset="1" /></linearGradient><linearGradient
     gradientTransform="translate(-408,-677.5)"
     y2="680.94922"
     x2="561.64203"
     y1="694.57318"
     x1="548.92682"
     gradientUnits="userSpaceOnUse"
     id="SVGID_2_"><stop
       id="stop21"
       style="stop-color:#0070B6"
       offset="0" /><stop
       id="stop23"
       style="stop-color:#1D2C5E"
       offset="1" /></linearGradient><linearGradient
     gradientTransform="translate(-408,-677.5)"
     y2="704.54773"
     x2="491.9368"
     y1="717.28607"
     x1="493.45309"
     gradientUnits="userSpaceOnUse"
     id="SVGID_3_"><stop
       id="stop32"
       style="stop-color:#0070B6"
       offset="0" /><stop
       id="stop34"
       style="stop-color:#1D2C5E"
       offset="1" /></linearGradient><linearGradient
     gradientTransform="translate(-408,-677.5)"
     y2="703.336"
     x2="631.74219"
     y1="714.83398"
     x1="632.34772"
     gradientUnits="userSpaceOnUse"
     id="SVGID_4_"><stop
       id="stop39"
       style="stop-color:#125D9E"
       offset="0" /><stop
       id="stop41"
       style="stop-color:#1D2C5E"
       offset="1" /></linearGradient><linearGradient
     gradientTransform="translate(-408,-677.5)"
     y2="719.48871"
     x2="576.56763"
     y1="698.26068"
     x1="589.91107"
     gradientUnits="userSpaceOnUse"
     id="SVGID_5_"><stop
       id="stop52"
       style="stop-color:#125D9E"
       offset="0" /><stop
       id="stop54"
       style="stop-color:#1D2C5E"
       offset="1" /></linearGradient><linearGradient
     gradientTransform="translate(-413.451,-679.186)"
     y2="750.20251"
     x2="480.91931"
     y1="732.30957"
     x1="471.82129"
     gradientUnits="userSpaceOnUse"
     id="SVGID_6_"><stop
       id="stop65"
       style="stop-color:#105FA1"
       offset="0" /><stop
       id="stop67"
       style="stop-color:#1D2C5E"
       offset="1" /></linearGradient><linearGradient
     gradientTransform="translate(-408,-677.5)"
     y2="750.61151"
     x2="448.0217"
     y1="726.20209"
     x1="437.49219"
     gradientUnits="userSpaceOnUse"
     id="SVGID_7_"><stop
       id="stop74"
       style="stop-color:#105FA1"
       offset="0" /><stop
       id="stop76"
       style="stop-color:#1D2C5E"
       offset="1" /></linearGradient><linearGradient
     gradientTransform="matrix(1,0,0,-1,-569.451,-926.686)"
     y2="-982.76947"
     x2="655.63483"
     y1="-982.76947"
     x1="639.70612"
     gradientUnits="userSpaceOnUse"
     id="SVGID_8_"><stop
       id="stop177"
       style="stop-color:#3C5AA6"
       offset="0" /><stop
       id="stop179"
       style="stop-color:#2B73B9"
       offset="0.9331" /><stop
       id="stop181"
       style="stop-color:#2A75BB"
       offset="1" /></linearGradient><g
     id="g4233"
     transform="matrix(2.9687999,0,0,2.9687999,-11.061748,-0.00302759)"><g
       id="g84"
       transform="translate(-5.451,-1.686)"><path
         d="M 46.389,96.338 44.952,93.145 26.6,52.186 l -0.377,-0.84 -0.834,0.385 -0.557,0.256 -3.267,1.604 C 21.083,52.783 20.283,51.429 19.727,50.49 L 12.34,38.006 10.408,34.747 13.604,32.722 c 3.023,-1.928 6.437,-3.709 10.151,-5.295 7.395,-3.15 14.943,-4.816 21.826,-4.816 2.264,0 4.455,0.183 6.513,0.541 3.431,0.391 6.604,1.517 9.225,3.263 3.906,2.184 6.981,5.572 8.718,9.58 1.426,3.294 1.704,7.152 0.798,11.154 l -0.532,2.351 1.953,-1.416 c 1.316,-0.955 2.746,-1.771 4.25,-2.426 2.6,-1.099 5.29,-1.66 7.985,-1.66 2.551,0 4.963,0.505 7.17,1.498 l 1.423,0.638 -0.143,-1.553 -0.619,-6.711 -0.1,-1.064 -1.036,0.269 -3.109,0.806 -0.545,-11.427 22.774,-7.276 -0.184,8.881 1.715,0.44 4.974,-9.532 14.897,13.212 0.621,0.553 0.606,-0.57 c 2.041,-1.918 4.46,-3.457 7.189,-4.574 l 1.14,-0.466 -0.781,-0.953 -2.686,-3.274 17.103,-19.714 8.957,13.365 -13.711,7.37 -3.045,1.638 3.457,0.073 c 6.5,0.137 12.256,2.887 16.205,7.742 l 1.428,1.761 0.92,1.131 -1.528,1.622 -1.019,1.082 -3.426,3.654 -0.637,0.679 0.689,0.622 3.211,2.891 1.242,1.117 0.266,-1.648 1.232,-7.627 0.315,-1.958 0.01,0.011 0.324,-2 1.839,-11.26 16.418,0 0.77,0 0.13,-0.759 0.321,-1.928 14.785,0 3.582,22.621 0.233,1.465 1.2,-0.871 c 1.451,-1.054 3.054,-1.921 4.766,-2.576 2.279,-0.86 4.625,-1.299 6.967,-1.299 2.788,0 5.495,0.644 7.836,1.861 0.062,0.045 0.15,0.103 0.27,0.151 l 1.111,0.446 0.131,-1.192 0.268,-2.465 0.088,-0.808 -0.795,-0.177 -2.998,-0.67 -0.146,-11.792 22.857,5.031 1.717,8.485 1.775,0.035 1.771,-7.302 19.06,4.635 -19.478,58.703 -13.938,-4.377 -0.099,-5.407 -0.014,-0.775 -0.769,-0.108 -13.908,-1.963 0.787,-7.069 0.187,-1.682 -1.505,0.771 c -0.713,0.363 -1.403,0.668 -2.055,0.908 -2.274,0.86 -4.603,1.295 -6.922,1.295 -0.671,0 -1.345,-0.037 -2.001,-0.111 l -1.188,-0.133 0.186,1.18 0.979,6.217 -20.291,-3.579 -1.063,-9.226 -0.342,-2.957 -1.367,2.643 -2.336,4.505 -4.301,-7.94 -1.293,-2.385 -0.408,2.68 -0.937,6.146 -17.784,-2.799 1.379,-8.435 0.315,-1.934 -1.681,1.005 c -2.911,1.745 -6.254,3.058 -10.217,4.015 -1.385,0.338 -2.832,0.572 -4.305,0.694 l -0.834,0.07 0,0.837 0,15.918 -35.023,-17.309 -1.316,-0.649 0.001,1.467 0.024,14.804 -15.659,2.307 -0.658,-7.109 -0.178,-1.902 -1.365,1.338 c -2.069,2.025 -4.4,3.595 -6.927,4.667 -2.585,1.099 -5.252,1.655 -7.925,1.655 -2.669,0 -5.177,-0.558 -7.455,-1.649 -4.22,-2.03 -7.264,-5.713 -8.57,-10.36 C 62.87,68.121 62.701,65.816 62.99,63.45 l 0.309,-2.52 -1.838,1.75 c -1.296,1.23 -2.692,2.405 -4.152,3.484 l -0.495,0.365 0.156,0.595 5.275,20.248 0.932,3.593 -3.532,1.123 -9.932,3.18 -3.324,1.07 0,0 z m 4.458,-54.356 c -0.512,0 -1.041,0.047 -1.574,0.143 l -0.676,0.13 -0.998,0.192 0.301,0.972 0.196,0.632 2.84,9.293 0.284,0.893 0.422,1.34 1.05,-0.934 0.697,-0.621 c 2.753,-2.474 3.718,-4.986 3.137,-8.154 -0.366,-1.901 -1.838,-2.848 -2.684,-3.244 -0.884,-0.426 -1.896,-0.642 -2.995,-0.642 l 0,0 z m 76.135,0.305 -1.775,1.728 -4.675,4.543 -1.018,0.989 1.325,0.512 5.014,1.935 1.54,0.593 -0.318,-1.618 c -0.414,-2.09 -0.522,-4.182 -0.328,-6.217 l 0.235,-2.465 0,0 z m 20.416,-5.167 c -1.939,0 -3.815,0.834 -5.148,2.286 -2.022,2.208 -2.415,5.465 -0.977,8.103 l 0.381,0.715 0.613,1.143 0.863,-0.966 0.555,-0.615 6.858,-7.83 0.539,-0.62 0.865,-0.994 -1.234,-0.457 -0.769,-0.284 c -0.807,-0.316 -1.671,-0.481 -2.546,-0.481 l 0,0 z"
         id="path86"
         style="fill:#ffcb05"
         inkscape:connector-curvature="0" /></g><path
       d="m 152.438,47.032 c -0.066,0.058 -0.127,0.132 -0.179,0.208 0.069,-0.063 0.136,-0.118 0.207,-0.176 l -0.028,-0.032 z"
       id="path88"
       style="fill:#7d7f68"
       inkscape:connector-curvature="0" /><path
       d="m 115.715,47.522 0.052,0.022 -0.052,-0.022 z"
       id="path94"
       style="fill:#7d7f68"
       inkscape:connector-curvature="0" /><g
       id="g160"
       transform="translate(-5.451,-1.686)"><g
         id="g162"><path
           d="M 58.588,46.145 C 57.689,41.321 51.381,38.662 45.127,42.073 l 1.612,5.521 2.536,8.159 1.157,3.716 c 4.692,-3.017 9.408,-6.642 8.156,-13.324 z m -6.212,7.418 c -0.683,-2.229 -2.181,-7.042 -2.181,-7.042 0.007,0.022 -0.295,-1.03 -0.653,-2.234 1.326,-0.237 2.6,-0.141 3.648,0.363 0.586,0.279 1.616,0.93 1.841,2.164 0.518,2.774 -0.417,4.754 -2.655,6.749 z"
           id="path164"
           style="fill:#3567b0;fill-opacity:1"
           inkscape:connector-curvature="0" /></g></g><g
       id="g166"
       transform="translate(-5.451,-1.686)"><g
         id="g168"><path
           d="m 153.223,38.491 c -3.496,-3.207 -8.93,-2.958 -12.119,0.535 -3.208,3.487 -2.956,8.924 0.545,12.118 0.285,0.275 0.593,0.5 0.903,0.721 l 11.277,-12.771 c -0.199,-0.208 -0.399,-0.415 -0.606,-0.603 z m -10.648,8.983 c -1.103,-2.025 -0.88,-4.596 0.769,-6.398 1.586,-1.728 4.016,-2.22 6.088,-1.421 l -6.857,7.819 z"
           id="path170"
           style="fill:#3567b0"
           inkscape:connector-curvature="0" /></g></g><path
       d="m 220.748,48.295 c 0.095,0.379 0.144,0.754 0.132,1.153 -0.104,2.386 -2.347,4.228 -5.021,4.103 -2.672,-0.092 -4.771,-2.12 -4.666,-4.5 0.09,-2.231 2.078,-3.997 4.533,-4.11 -0.466,-0.105 -0.953,-0.16 -1.461,-0.178 -4.473,-0.193 -8.129,2.975 -8.283,6.919 -0.172,4.218 3.209,7.657 7.611,7.848 4.479,0.179 8.133,-3 8.311,-7.198 0.052,-1.455 -0.378,-2.85 -1.156,-4.037"
       id="path174"
       style="fill:#3466af"
       inkscape:connector-curvature="0" /><path
       d="m 85.053,53.112 c 0,2.396 -2.179,4.316 -4.848,4.316 -2.676,0 -4.847,-1.921 -4.847,-4.316 0,-2.233 1.91,-4.074 4.358,-4.288 -0.469,-0.085 -0.957,-0.134 -1.461,-0.134 -4.472,0 -8,3.317 -8,7.267 0,4.215 3.529,7.521 7.928,7.521 4.476,0 8.001,-3.308 8.001,-7.521 0,-1.459 -0.482,-2.834 -1.311,-3.966 0.112,0.341 0.18,0.719 0.18,1.121"
       id="path183"
       style="fill:#3567b0;fill-opacity:1"
       inkscape:connector-curvature="0" /><g
       id="g185"
       transform="translate(-5.451,-1.686)"><g
         id="g187"><linearGradient
           id="SVGID_9_"
           gradientUnits="userSpaceOnUse"
           x1="573.17767"
           y1="-974.57031"
           x2="838.9209"
           y2="-974.57031"
           gradientTransform="matrix(1,0,0,-1,-564,-925)"><stop
             offset="0"
             style="stop-color:#3C5AA6"
             id="stop190" /><stop
             offset="0.9331"
             style="stop-color:#2B73B9"
             id="stop192" /><stop
             offset="1"
             style="stop-color:#2A75BB"
             id="stop194" /></linearGradient><path
           d="m 254.02,30.597996 -1.986,8.185 -1.834,-9.063 -24.559,-5.406 0.172,13.656 3.701,0.83 -0.267,2.463 c -0.048,-0.019 -0.078,-0.048 -0.104,-0.069 -4.588,-2.421 -10.276,-2.669 -15.629,-0.647 -1.796,0.687 -3.463,1.59 -4.975,2.688 l -3.705,-23.388 -16.333,0 -0.45,2.689 -17.191,0 -1.963,12.023 -1.426,-1.761 c -4.166,-5.118 -10.205,-7.937 -16.895,-8.077 l 14.596,-7.845 -10.178,-15.1890004 -18.389,21.1890004 3.174,3.87 c -2.875,1.175 -5.387,2.795 -7.468,4.752 l -15.767,-13.989 -5.513,10.566 0.212,-10.154 -24.651,7.875 0.632,13.244 4.194,-1.088 0.62,6.712 c -4.792,-2.152 -10.552,-2.099 -15.894,0.158 -1.583,0.69 -3.059,1.538 -4.419,2.524 0.924,-4.089 0.705,-8.12 -0.853,-11.715 -1.84,-4.248 -5.078,-7.759 -9.048,-9.974 -2.783,-1.854 -6.1,-3.009 -9.571,-3.402 -8.53,-1.491 -18.773,0.04 -28.854,4.335 -3.706,1.581 -7.163,3.375 -10.281,5.361 l -3.941,2.499 2.38,4.019 7.386,12.483 c 0,0 2.26,3.825 2.275,3.823 l 3.994,-1.963 0.557,-0.256 18.353,40.961 1.77,3.937 4.098,-1.32 9.93,-3.181 4.352,-1.383 -1.148,-4.43 -5.274,-20.245 c 1.517,-1.123 2.933,-2.314 4.24,-3.561 -0.295,2.419 -0.14,4.868 0.526,7.212 1.379,4.908 4.593,8.785 9.053,10.933 4.817,2.315 10.694,2.321 16.131,0.015 2.727,-1.157 5.152,-2.845 7.207,-4.854 l 0.749,8.063 17.39,-2.561 -0.027,-15.593 36.337,17.959 0,-17.389 c 1.458,-0.122 2.946,-0.352 4.442,-0.719 4.002,-0.967 7.427,-2.293 10.47,-4.116 l -1.526,9.339 19.592,3.083 1.075,-7.05 5.117,9.453 3.128,-6.027 1.143,9.896 22.213,3.916 -1.178,-7.473 c 3.041,0.344 6.246,-0.064 9.342,-1.232 0.733,-0.271 1.457,-0.601 2.15,-0.955 l -0.885,7.951 14.784,2.086 0.11,6.063 15.416,4.839 20.071,-60.495 -20.9,-5.08 z m -86.793,8.99 1.019,-1.083 -1.231,7.627 -3.211,-2.892 3.423,-3.652 z m -13.018,-31.1560004 5.382,7.3110004 -15.387,7.628 -1.063,-1.615 11.068,-13.3240004 z M 52.32,64.808996 l 6.139,23.555 -9.936,3.174 -20.389,-45.534 c -1.109,0.583 -3.157,1.561 -5.038,2.483 l -7.383,-12.472 c 2.936,-1.875 6.156,-3.537 9.581,-4.984 9.612,-4.088 18.783,-5.308 26.118,-4.012 2.595,0.292 5.342,1.057 7.748,2.654 3.301,1.859 5.826,4.505 7.282,7.875 3.551,8.206 -2.381,20.015 -14.122,27.261 z m 45.681,-4.192 c -0.114,3.507 -1.402,7.021 -3.558,9.994 -2.051,2.875 -4.916,5.248 -8.287,6.699 -8.62,3.652 -17.24,0 -19.543,-8.184 -2.231,-7.913 2.96,-17.333 11.312,-20.931 5.334,-2.252 10.686,-1.718 14.52,0.887 2.368,1.606 4.174,4.021 5.017,7.047 0.106,0.321 0.176,0.658 0.247,0.988 0.241,1.153 0.338,2.335 0.292,3.5 z m 46.901,16.653 -36.055,-18.033 0.064,18.894 -9.327,1.272 -0.65,-7.788 c 2.88,-4.938 3.933,-10.757 2.43,-16.093 -0.825,-2.933 -2.349,-5.479 -4.42,-7.519 l -1.338,-15.879 -4.188,1.086 -0.185,-4.015 14.978,-4.46 0.918,15.448 11.034,-15.503 10.787,10.273 -15.085,15.892 14.172,5.606 c 1.583,3 3.998,5.549 7.028,7.427 2.929,1.808 6.285,2.877 9.835,3.228 l 0.002,10.164 0,0 z m -18.721,-26.126 -5.015,-1.935 4.675,-4.544 c -0.2,2.086 -0.097,4.267 0.34,6.479 z m 39.237,4.724 c -3.46,2.862 -7.404,4.728 -12.615,5.987 -1.139,0.261 -2.255,0.451 -3.347,0.547 -8.271,0.813 -15.21,-2.985 -17.843,-9.145 -0.328,-0.746 -0.581,-1.501 -0.772,-2.307 -1.218,-5.188 -0.178,-9.825 2.385,-13.458 0.738,-1.06 1.614,-2.026 2.598,-2.896 2.414,-2.154 5.496,-3.72 9,-4.562 7.879,-1.9 14.818,0.505 19.072,5.725 l -15.014,15.981 c 1.018,0.192 2.637,-0.075 3.832,-0.361 3.576,-0.872 5.577,-2.77 7.34,-4.838 l 6,5.398 1.818,1.642 c -0.788,0.815 -1.616,1.584 -2.454,2.287 z m 31.853,21.327 -3.266,-21.635 -4.619,11.935 -6.916,-14.917 -0.078,0 -2.733,17.275 -11.527,-2.006 1.621,-9.64 c 0.435,-0.409 0.863,-0.819 1.284,-1.252 l 3.736,-3.847 -3.631,-3.252 3.858,-22.957 11.63,0 2.911,15.892 3.262,-18.417 8.319,0 3.452,22.438 c -4.393,5.004 -6.527,11.731 -5.059,17.885 1.135,4.771 4.067,8.613 8.27,10.857 0.423,0.213 0.861,0.424 1.313,0.606 l 0.44,2.909 -12.267,-1.874 z m 28.725,-7.049 c -1.271,0.905 -2.67,1.674 -4.174,2.229 -2.969,1.131 -5.922,1.366 -8.553,0.843 -1.834,-0.362 -3.506,-1.077 -4.961,-2.112 -2.314,-1.674 -4.018,-4.146 -4.769,-7.25 -0.876,-3.729 -0.069,-7.711 1.937,-11.199 1,-1.705 2.283,-3.307 3.801,-4.688 1.693,-1.518 3.656,-2.761 5.84,-3.601 5.083,-1.896 10.096,-1.242 13.625,1.295 1.298,0.92 2.375,2.091 3.224,3.452 0.644,1.075 1.144,2.26 1.447,3.554 1.081,4.478 -0.206,9.274 -3.031,13.138 -1.21,1.647 -2.685,3.127 -4.386,4.339 z m 25.955,20.392 -8.524,-2.539 -0.743,-31.426 -4.287,24.243 -9.299,-1.484 0.666,-6.98 c 6.072,-5.131 9.291,-13.225 7.527,-20.56 -0.775,-3.248 -2.445,-6.076 -4.799,-8.226 l 0.785,-8.232 -3.516,-0.936 0.235,-4.395 16.021,3.22 5.387,25.546 5.525,-22.903 12.188,2.693 -17.166,51.979 z"
           id="path196"
           style="fill:#3567b0;fill-opacity:1"
           inkscape:connector-curvature="0" /></g></g><g
       id="flowRoot3115"
       style="font-style:normal;font-variant:normal;font-weight:normal;font-stretch:normal;font-size:4px;line-height:125%;font-family:Arial;-inkscape-font-specification:Arial;letter-spacing:0px;word-spacing:0px;fill:#000000;fill-opacity:1;stroke:none"
       transform="matrix(0.93943959,0,0,0.93943959,14.793383,6.4307935)"><path
         id="path3084"
         d="m 254.09961,90.904794 0,-2.525391 -0.94336,0 0,-0.33789 2.26953,0 0,0.33789 -0.94726,0 0,2.525391 z"
         inkscape:connector-curvature="0" /><path
         id="path3086"
         d="m 255.80469,90.904794 0,-2.863281 0.57031,0 0.67773,2.027343 c 0.0625,0.188803 0.10808,0.330079 0.13672,0.423829 0.0325,-0.104167 0.0833,-0.257161 0.15235,-0.458985 l 0.68554,-1.992187 0.50977,0 0,2.863281 -0.36524,0 0,-2.396484 -0.83203,2.396484 -0.34179,0 -0.82813,-2.4375 0,2.4375 z"
         inkscape:connector-curvature="0" /></g></g></svg>